<svg xmlns="http://www.w3.org/2000/svg" xmlns:xlink="http://www.w3.org/1999/xlink" width="336" height="336" xmlns:v="https://vecta.io/nano"><style><![CDATA[.B{fill-rule:nonzero}.C{mask:url(#J)}]]></style><defs><circle id="A" cx="168" cy="168" r="168"/><circle id="B" cx="168" cy="168" r="168"/><circle id="C" cx="168" cy="168" r="168"/><circle id="D" cx="168" cy="168" r="168"/><path id="E" d="M0 0c88.918 0 161 72.082 161 161S88.918 322 0 322z"/></defs><g fill="none" fill-rule="evenodd"><circle cx="168" cy="168" r="168" fill="#ff6a45" class="B"/><mask id="F" fill="#fff"><use xlink:href="#A"/></mask><path fill="#ff9b6b" d="M102 36c0-6.627-5.373-12-12-12H55c-6.627 0-12-5.373-12-12S48.373 0 55 0h156c6.627 0 12 5.373 12 12s-5.373 12-12 12h-56l-.001.01c-6.395.263-11.499 5.53-11.499 11.99s5.104 11.727 11.5 11.99V48h13c6.627 0 12 5.373 12 12s-5.373 12-12 12H41c-6.627 0-12-5.373-12-12s5.373-12 12-12h49c6.627 0 12-5.373 12-12zm172 12c6.627 0 12 5.373 12 12s-5.373 12-12 12h-5c-6.627 0-12-5.373-12-12s5.373-12 12-12h5z" mask="url(#F)" class="B"/><mask id="G" fill="#fff"><use xlink:href="#B"/></mask><path fill="#ff9b6b" d="M209 324c0-6.627-5.373-12-12-12h-35c-6.627 0-12-5.373-12-12s5.373-12 12-12h156c6.627 0 12 5.373 12 12s-5.373 12-12 12h-56l-.001.01c-6.395.263-11.499 5.53-11.499 11.99s5.104 11.727 11.499 11.99v.01H275c6.627 0 12 5.373 12 12s-5.373 12-12 12H148c-6.627 0-12-5.373-12-12s5.373-12 12-12h49c6.627 0 12-5.373 12-12zm172 12c6.627 0 12 5.373 12 12s-5.373 12-12 12h-5c-6.627 0-12-5.373-12-12s5.373-12 12-12h5z" mask="url(#G)" class="B"/><mask id="H" fill="#fff"><use xlink:href="#C"/></mask><path fill="#d04237" d="M217 264c6.627 0 12 5.373 12 12s-5.373 12-12 12h-62c-6.627 0-12-5.373-12-12s5.373-12 12-12h62zm-117 0c6.627 0 12 5.373 12 12s-5.373 12-12 12H80c-6.627 0-12-5.373-12-12s5.373-12 12-12h20zm163-96c6.627 0 12 5.373 12 12s-5.373 12-12 12H112l-.001.01c-6.395.263-11.499 5.53-11.499 11.99s5.104 11.727 11.499 11.99l.001.01h19c6.627 0 12 5.373 12 12s-5.373 12-12 12H11c-6.627 0-12-5.373-12-12s5.373-12 12-12h32c6.627 0 12-5.373 12-12s-5.373-12-12-12h-64c-6.627 0-12-5.373-12-12s5.373-12 12-12h284zm-52 48c6.627 0 12 5.373 12 12s-5.373 12-12 12h-20c-6.627 0-12-5.373-12-12s5.373-12 12-12h20zM139 72c6.627 0 12 5.373 12 12s-5.373 12-12 12H99c-6.627 0-12-5.373-12-12s5.373-12 12-12h40zm209 0c6.627 0 12 5.373 12 12s-5.373 12-12 12h-40c-6.627 0-12-5.373-12-12s5.373-12 12-12h40z" mask="url(#H)" class="B"/><mask id="I" fill="#fff"><use xlink:href="#D"/></mask><path fill="#000" mask="url(#I)" opacity=".078" d="M169-16h184v368H169z" class="B"/><g transform="translate(169 7)"><mask id="J" fill="#fff"><use xlink:href="#E"/></mask><use fill="#97271e" xlink:href="#E"/><circle cx="1" cy="161" r="154" fill="#dc5d1c" class="C"/><circle cx="1" cy="161" r="79" fill="#f8a053" class="C"/><circle cx="1" cy="161" r="54" fill="#ffca79" class="C"/><circle cx="1" cy="162" r="40" fill="#fff5c6" class="C"/></g></g></svg>