<svg xmlns="http://www.w3.org/2000/svg" xmlns:xlink="http://www.w3.org/1999/xlink" width="450" height="450" xmlns:v="https://vecta.io/nano"><style><![CDATA[.B{fill-rule:nonzero}.C{fill:#356cee}]]></style><defs><circle id="A" cx="225" cy="225" r="225"/><circle id="B" cx="225" cy="225" r="225"/><circle id="C" cx="225" cy="225" r="225"/><circle id="D" cx="225" cy="225" r="225"/><circle id="E" cx="225" cy="225" r="225"/></defs><g fill-rule="evenodd"><circle cx="225" cy="225" r="225" fill="#497efa" class="B"/><mask id="F" fill="#fff"><use xlink:href="#A"/></mask><path d="M317.177 262c6.628 0 12 5.373 12 12s-5.372 12-12 12h-73c-6.627 0-12-5.373-12-12s5.373-12 12-12h73zm-287 0c6.628 0 12 5.373 12 12s-5.372 12-12 12h-73c-6.627 0-12-5.373-12-12s5.373-12 12-12h73zm539 0c6.628 0 12 5.373 12 12s-5.372 12-12 12h-166c-6.627 0-12-5.373-12-12s5.373-12 12-12h166zm-334-96c6.628 0 12 5.373 12 12s-5.372 12-12 12h-78v.01c-6.395.262-11.5 5.53-11.5 11.99s5.105 11.728 11.5 11.99v.01h160c6.628 0 12 5.373 12 12s-5.372 12-12 12h-257c-6.627 0-12-5.373-12-12s5.373-12 12-12h49c6.628 0 12-5.373 12-12s-5.372-12-12-12h-30c-6.627 0-12-5.373-12-12s5.373-12 12-12h156zm168 36c0-6.627-5.372-12-12-12h-84c-6.627 0-12-5.373-12-12s5.373-12 12-12h156c6.628 0 12 5.373 12 12s-5.372 12-12 12h-24v.01c-6.395.262-11.5 5.53-11.5 11.99s5.105 11.728 11.5 11.99v.01h200c6.628 0 12 5.373 12 12s-5.372 12-12 12h-257c-6.627 0-12-5.373-12-12s5.373-12 12-12h9c6.628 0 12-5.373 12-12zm-388-36c6.628 0 12 5.373 12 12s-5.372 12-12 12h-156c-6.627 0-12-5.373-12-12s5.373-12 12-12h156zm662 0c6.628 0 12 5.373 12 12s-5.372 12-12 12h-156c-6.627 0-12-5.373-12-12s5.373-12 12-12h156z" mask="url(#F)" class="B C"/><mask id="G" fill="#fff"><use xlink:href="#B"/></mask><path d="M317.177 118c6.628 0 12 5.373 12 12s-5.372 12-12 12h-73c-6.627 0-12-5.373-12-12s5.373-12 12-12h73zm-287 0c6.628 0 12 5.373 12 12s-5.372 12-12 12h-73c-6.627 0-12-5.373-12-12s5.373-12 12-12h73zm539 0c6.628 0 12 5.373 12 12s-5.372 12-12 12h-166c-6.627 0-12-5.373-12-12s5.373-12 12-12h166zm-334-96c6.628 0 12 5.373 12 12s-5.372 12-12 12h-78v.01c-6.395.262-11.5 5.53-11.5 11.99s5.105 11.728 11.5 11.99V70h160c6.628 0 12 5.373 12 12s-5.372 12-12 12h-257c-6.627 0-12-5.373-12-12s5.373-12 12-12h49c6.628 0 12-5.373 12-12s-5.372-12-12-12h-30c-6.627 0-12-5.373-12-12s5.373-12 12-12h156zm168 36c0-6.627-5.372-12-12-12h-84c-6.627 0-12-5.373-12-12s5.373-12 12-12h156c6.628 0 12 5.373 12 12s-5.372 12-12 12h-24v.01c-6.395.262-11.5 5.53-11.5 11.99s5.105 11.728 11.5 11.99V70h200c6.628 0 12 5.373 12 12s-5.372 12-12 12h-257c-6.627 0-12-5.373-12-12s5.373-12 12-12h9c6.628 0 12-5.373 12-12zm-388-36c6.628 0 12 5.373 12 12s-5.372 12-12 12h-156c-6.627 0-12-5.373-12-12s5.373-12 12-12h156zm662 0c6.628 0 12 5.373 12 12s-5.372 12-12 12h-156c-6.627 0-12-5.373-12-12s5.373-12 12-12h156z" mask="url(#G)" opacity=".4" class="B C"/><mask id="H" fill="#fff"><use xlink:href="#C"/></mask><path d="M317.177 430c6.628 0 12 5.373 12 12s-5.372 12-12 12h-73c-6.627 0-12-5.373-12-12s5.373-12 12-12h73zm-287 0c6.628 0 12 5.373 12 12s-5.372 12-12 12h-73c-6.627 0-12-5.373-12-12s5.373-12 12-12h73zm539 0c6.628 0 12 5.373 12 12s-5.372 12-12 12h-166c-6.627 0-12-5.373-12-12s5.373-12 12-12h166zm-334-96c6.628 0 12 5.373 12 12s-5.372 12-12 12h-78v.01c-6.395.262-11.5 5.53-11.5 11.99s5.105 11.728 11.5 11.99v.01h160c6.628 0 12 5.373 12 12s-5.372 12-12 12h-257c-6.627 0-12-5.373-12-12s5.373-12 12-12h49c6.628 0 12-5.373 12-12s-5.372-12-12-12h-30c-6.627 0-12-5.373-12-12s5.373-12 12-12h156zm168 36c0-6.627-5.372-12-12-12h-84c-6.627 0-12-5.373-12-12s5.373-12 12-12h156c6.628 0 12 5.373 12 12s-5.372 12-12 12h-24v.01c-6.395.262-11.5 5.53-11.5 11.99s5.105 11.728 11.5 11.99v.01h200c6.628 0 12 5.373 12 12s-5.372 12-12 12h-257c-6.627 0-12-5.373-12-12s5.373-12 12-12h9c6.628 0 12-5.373 12-12zm-388-36c6.628 0 12 5.373 12 12s-5.372 12-12 12h-156c-6.627 0-12-5.373-12-12s5.373-12 12-12h156zm662 0c6.628 0 12 5.373 12 12s-5.372 12-12 12h-156c-6.627 0-12-5.373-12-12s5.373-12 12-12h156z" mask="url(#H)" opacity=".4" class="B C"/><mask id="I" fill="#fff"><use xlink:href="#D"/></mask><path fill="#2255ca" d="M148.177 274c0-6.627-5.372-12-12-12h-19c-6.627 0-12-5.373-12-12s5.373-12 12-12h79c6.628 0 12 5.373 12 12s-5.372 12-12 12h-3v.01c-6.395.262-11.5 5.53-11.5 11.99s5.105 11.728 11.5 11.99v.01h3c6.628 0 12 5.373 12 12s-5.372 12-12 12h-61c-6.627 0-12-5.373-12-12s5.373-12 12-12h1c6.628 0 12-5.373 12-12z" mask="url(#I)" class="B"/><mask id="J" fill="#fff"><use xlink:href="#E"/></mask><path fill="#000" mask="url(#J)" opacity=".078" d="M225 11h215.354v428H225z" class="B"/></g></svg>