<svg xmlns="http://www.w3.org/2000/svg" xmlns:xlink="http://www.w3.org/1999/xlink" width="290" height="290" xmlns:v="https://vecta.io/nano"><defs><circle id="A" cx="145" cy="145" r="145"/><circle id="B" cx="145" cy="145" r="145"/><path id="C" d="M0 0c76.768 0 139 62.232 139 139S76.768 278 0 278z"/></defs><g fill="none" fill-rule="evenodd"><circle cx="145" cy="145" r="145" fill="#def4fc" fill-rule="nonzero"/><mask id="D" fill="#fff"><use xlink:href="#A"/></mask><path fill="#b1d5e2" fill-rule="nonzero" d="M154 253c6.627 0 12 5.373 12 12s-5.373 12-12 12h-20c-6.627 0-12-5.373-12-12s5.373-12 12-12h20zm86-48c6.627 0 12 5.373 12 12s-5.373 12-12 12h-62c-6.627 0-12-5.373-12-12s5.373-12 12-12h62zm-110 0c6.627 0 12 5.373 12 12s-5.373 12-12 12-12-5.373-12-12 5.373-12 12-12zm-45-60c0-6.627-5.373-12-12-12H2c-6.627 0-12-5.373-12-12s5.373-12 12-12h49c6.627 0 12-5.373 12-12s-5.373-12-12-12h-5c-6.627 0-12-5.373-12-12s5.373-12 12-12h73c6.627 0 12 5.373 12 12s-5.373 12-12 12H99v.01c-6.395.262-11.5 5.53-11.5 11.99s5.105 11.728 11.5 11.99v.01h45c6.627 0 12 5.373 12 12s-5.373 12-12 12h-2l-.001.01c-6.395.263-11.499 5.53-11.499 11.99s5.104 11.727 11.499 11.99l.001.01h52c6.627 0 12 5.373 12 12s-5.373 12-12 12H70c-6.627 0-12-5.373-12-12s5.373-12 12-12h3c6.627 0 12-5.373 12-12zm160 12c6.627 0 12 5.373 12 12s-5.373 12-12 12-12-5.373-12-12 5.373-12 12-12zm-223 0c6.627 0 12 5.373 12 12s-5.373 12-12 12H2c-6.627 0-12-5.373-12-12s5.373-12 12-12h20zm199-96c6.627 0 12 5.373 12 12s-5.373 12-12 12h-20c-6.627 0-12-5.373-12-12s5.373-12 12-12h20zm24-48c6.627 0 12 5.373 12 12s-5.373 12-12 12h-58c-6.627 0-12-5.373-12-12s5.373-12 12-12h58z" mask="url(#D)"/><mask id="E" fill="#fff"><use xlink:href="#B"/></mask><path fill="#000" fill-rule="nonzero" mask="url(#E)" opacity=".078" d="M146 0h145v290H146z"/><g transform="translate(146 6)"><mask id="F" fill="#fff"><use xlink:href="#C"/></mask><use fill="#7a939c" xlink:href="#C"/><circle cx="1" cy="140" r="131" fill="#9ab2bb" mask="url(#F)"/><circle cx="1" cy="139" r="95" fill="#e8903f" mask="url(#F)"/><circle cx=".5" cy="139.5" r="41.5" fill="#ffea87" mask="url(#F)"/></g></g></svg>